Coordinates
version=1
nRows=32
nColumns=22
inDegrees=yes

Units are S.I. units (second, meters, Newtons, ...)
If the header above contains a line with 'inDegrees', this indicates whether rotational values are in degrees (yes) or radians (no).

endheader
time	pelvis_tilt	pelvis_list	pelvis_rotation	pelvis_tx	pelvis_ty	pelvis_tz	hip_flexion_r	hip_adduction_r	hip_rotation_r	knee_angle_r	ankle_angle_r	subtalar_angle_r	hip_flexion_l	hip_adduction_l	hip_rotation_l	knee_angle_l	ankle_angle_l	subtalar_angle_l	lumbar_extension	lumbar_bending	lumbar_rotation
      1.32000000	     -3.45981417	     -3.99724662	     -6.95489315	     -1.11760040	      0.94867137	      0.41460100	      4.92433245	      7.78519933	      0.26148865	    -17.31086443	     16.26235018	     -2.37229041	     26.26541880	     -9.32626208	     -4.16311832	    -52.30966944	      6.35163859	     -0.31358795	     -8.35797334	      3.73848227	      4.29444470
      1.33000000	     -3.37185443	     -3.88015321	     -7.08395377	     -1.11548118	      0.94879099	      0.41530188	      4.59898329	      7.67922041	      0.44819467	    -17.13145117	     16.35404836	     -2.40188902	     27.23813152	     -9.44276875	     -4.46388781	    -53.23667610	      6.10208287	     -0.40161268	     -8.56374195	      3.58808028	      4.63040548
      1.34000000	     -3.27631957	     -3.76172864	     -7.19236653	     -1.11320740	      0.94893574	      0.41593204	      4.26226212	      7.56033637	      0.56322204	    -16.96763520	     16.47480994	     -2.42076408	     28.13083969	     -9.54468078	     -4.76150285	    -53.87912369	      5.94139070	     -0.45195626	     -8.76664276	      3.43607641	      4.91968812
      1.35000000	     -3.24268136	     -3.62794000	     -7.32358715	     -1.11078763	      0.94902122	      0.41654748	      3.98275897	      7.43080357	      0.69510332	    -16.80714166	     16.51211356	     -2.43867456	     28.99742647	     -9.63668802	     -5.08170259	    -54.22295261	      5.86399927	     -0.52094647	     -8.88357808	      3.27387122	      5.23424035
      1.36000000	     -3.21563115	     -3.49444872	     -7.43363745	     -1.10820488	      0.94910401	      0.41705434	      3.70027044	      7.29047096	      0.75957372	    -16.65035608	     16.52384273	     -2.45787698	     29.78941379	     -9.69150974	     -5.35656084	    -54.28292487	      5.82925540	     -0.56407903	     -8.98325340	      3.12096935	      5.51722354
      1.37000000	     -3.18870276	     -3.37390947	     -7.51799273	     -1.10546585	      0.94918012	      0.41749250	      3.39782616	      7.15779235	      0.76858823	    -16.48062886	     16.52260128	     -2.47125493	     30.50096306	     -9.72219708	     -5.57456482	    -54.07222860	      5.81076870	     -0.56647570	     -9.07810949	      2.98274254	      5.77261527
      1.38000000	     -3.17056284	     -3.27150596	     -7.57684971	     -1.10255477	      0.94922374	      0.41783305	      3.07923174	      7.03691917	      0.73859857	    -16.28958117	     16.51479272	     -2.47277476	     31.13990768	     -9.73228579	     -5.73495108	    -53.60526773	      5.79953156	     -0.53949557	     -9.15689445	      2.87533245	      5.98732988
      1.39000000	     -3.15662715	     -3.17031308	     -7.62882707	     -1.09950943	      0.94921570	      0.41812698	      2.75146395	      6.91512497	      0.71746338	    -16.09163510	     16.51699671	     -2.46966674	     31.70645819	     -9.71694329	     -5.86158930	    -52.90910510	      5.78734519	     -0.47960965	     -9.22847304	      2.76535396	      6.20815319
      1.40000000	     -3.10896472	     -3.07534670	     -7.67399919	     -1.09630707	      0.94921028	      0.41833614	      2.37004683	      6.78470397	      0.67627880	    -15.87837372	     16.56198495	     -2.45483117	     32.15183521	     -9.67415904	     -5.96058961	    -51.99201349	      5.79243936	     -0.35577950	     -9.33989433	      2.66322794	      6.43589125
      1.41000000	     -3.08003823	     -3.00338649	     -7.67747427	     -1.09294516	      0.94911039	      0.41844315	      1.97504601	      6.67473631	      0.61846623	    -15.62327966	     16.60953612	     -2.42200702	     32.55474887	     -9.61489840	     -5.99449754	    -50.89077823	      5.81237374	     -0.23472306	     -9.42599251	      2.59419303	      6.60402373
      1.42000000	     -3.05503908	     -2.95128707	     -7.66000326	     -1.08942833	      0.94892951	      0.41846923	      1.55641178	      6.57945849	      0.55885447	    -15.33776990	     16.68826854	     -2.37328413	     32.89876878	     -9.55319342	     -6.00243722	    -49.62947594	      5.85234495	     -0.10508676	     -9.50632767	      2.55294434	      6.74964522
      1.43000000	     -3.04246598	     -2.91313511	     -7.62103880	     -1.08578159	      0.94865863	      0.41839622	      1.13646332	      6.49354290	      0.49748659	    -15.04110381	     16.78655333	     -2.32443098	     33.19621338	     -9.47361028	     -5.96634117	    -48.22378382	      5.89962028	      0.01991995	     -9.57350502	      2.53423370	      6.88160110
      1.44000000	     -3.03475056	     -2.89713461	     -7.56449541	     -1.08198083	      0.94830834	      0.41826104	      0.69404269	      6.42714515	      0.43101853	    -14.71546165	     16.90801147	     -2.26839502	     33.44080745	     -9.40077577	     -5.91427110	    -46.69596324	      5.96660657	      0.15615210	     -9.63313144	      2.54107919	      6.99447132
      1.45000000	     -3.04148409	     -2.89771695	     -7.49103111	     -1.07804122	      0.94786265	      0.41805905	      0.25076803	      6.37568042	      0.35831652	    -14.37942501	     17.04700952	     -2.21164133	     33.64762176	     -9.32995993	     -5.84499995	    -45.06344134	      6.04430676	      0.29712567	     -9.67428632	      2.56997784	      7.09091609
      1.46000000	     -3.06522984	     -2.91226998	     -7.40501660	     -1.07397340	      0.94732041	      0.41778850	     -0.18505626	      6.33736160	      0.27754015	    -14.04130038	     17.20110710	     -2.15650028	     33.81975975	     -9.25934134	     -5.76064888	    -43.33822914	      6.12934020	      0.43623167	     -9.69448955	      2.61765678	      7.17409393
      1.47000000	     -3.11262037	     -2.93237575	     -7.30688064	     -1.06978447	      0.94666964	      0.41745432	     -0.59657864	      6.30531298	      0.17524966	    -13.71682531	     17.37134524	     -2.11319283	     33.96679715	     -9.18035716	     -5.65725675	    -41.53438090	      6.21263290	      0.55523116	     -9.68445547	      2.67398037	      7.24573010
      1.48000000	     -3.18342577	     -2.95723972	     -7.20232449	     -1.06548542	      0.94591307	      0.41705840	     -0.97912641	      6.27908164	      0.06460862	    -13.41387193	     17.55422141	     -2.07395194	     34.09008318	     -9.09432367	     -5.53133382	    -39.66669499	      6.29975235	      0.64966880	     -9.64614941	      2.73755434	      7.30886927
      1.49000000	     -3.28310066	     -2.98066503	     -7.09372861	     -1.06109037	      0.94504418	      0.41659605	     -1.31624808	      6.25286431	     -0.05552364	    -13.14915668	     17.75136821	     -2.03917695	     34.19837589	     -8.99376013	     -5.37270718	    -37.75026117	      6.39338419	      0.71027599	     -9.57357103	      2.80148628	      7.36391386
      1.50000000	     -3.41201267	     -3.00020961	     -6.98452957	     -1.05660407	      0.94406808	      0.41608537	     -1.60124271	      6.22578111	     -0.17932220	    -12.93408902	     17.96310820	     -2.00565503	     34.29438633	     -8.87876755	     -5.17103990	    -35.79939846	      6.50160313	      0.73364795	     -9.46678456	      2.85917460	      7.41838590
      1.51000000	     -3.56967016	     -3.01323869	     -6.87803401	     -1.05203455	      0.94299360	      0.41551893	     -1.82811655	      6.19346494	     -0.29837381	    -12.77839224	     18.19036241	     -1.97156239	     34.38089892	     -8.74938003	     -4.92450222	    -33.82987123	      6.63136228	      0.71815967	     -9.32789799	      2.90869082	      7.47124032
      1.52000000	     -3.75274250	     -3.02002889	     -6.77791897	     -1.04738450	      0.94183386	      0.41490310	     -1.99729263	      6.15566773	     -0.40572338	    -12.68733155	     18.43425151	     -1.93502513	     34.45897041	     -8.61067418	     -4.63504936	    -31.86034792	      6.78355279	      0.66380890	     -9.16269862	      2.94999286	      7.52690972
      1.53000000	     -3.95683099	     -3.01532515	     -6.68049533	     -1.04265061	      0.94060212	      0.41425896	     -2.11171687	      6.10759957	     -0.50291361	    -12.66181957	     18.70161302	     -1.89628784	     34.52796440	     -8.46221854	     -4.30783848	    -29.90695300	      6.95422335	      0.57163005	     -8.97465452	      2.96932768	      7.58049370
      1.54000000	     -4.18418594	     -3.00520352	     -6.59035006	     -1.03782631	      0.93929974	      0.41357653	     -2.17472630	      6.05618019	     -0.56177868	    -12.69496795	     18.98162056	     -1.87220551	     34.59983651	     -8.31562780	     -3.95872624	    -27.99840199	      7.15114050	      0.46830731	     -8.76129714	      2.97932487	      7.62981177
      1.55000000	     -4.41774314	     -2.98660547	     -6.50382945	     -1.03291270	      0.93795935	      0.41286420	     -2.19840464	      5.99434124	     -0.61304432	    -12.79364562	     19.28304872	     -1.85212053	     34.66054762	     -8.16827877	     -3.59564037	    -26.15364555	      7.34510478	      0.35174582	     -8.54351845	      2.96642570	      7.68410544
      1.56000000	     -4.65210609	     -2.96372502	     -6.42240763	     -1.02788984	      0.93659427	      0.41210642	     -2.19391134	      5.92433986	     -0.66282630	    -12.95129090	     19.59681286	     -1.83106618	     34.71548140	     -8.02822022	     -3.25174659	    -24.40584767	      7.52048622	      0.22961939	     -8.32614491	      2.94042686	      7.75583517
      1.57000000	     -4.88195687	     -2.93005790	     -6.34159323	     -1.02275157	      0.93521387	      0.41128695	     -2.16924649	      5.83975960	     -0.67933035	    -13.16643850	     19.91485800	     -1.82348621	     34.77004631	     -7.88812444	     -2.95954000	    -22.78420567	      7.68855696	      0.14100881	     -8.11509092	      2.89611330	      7.80330787
      1.58000000	     -5.09844433	     -2.89195398	     -6.26468355	     -1.01748103	      0.93383783	      0.41040757	     -2.13512441	      5.74230218	     -0.70488487	    -13.43722576	     20.22944288	     -1.81496391	     34.82581948	     -7.75676221	     -2.75430254	    -21.32299121	      7.81897350	      0.07711205	     -7.91942360	      2.83608188	      7.86553814
      1.59000000	     -5.29347552	     -2.84889220	     -6.18545904	     -1.01206486	      0.93247940	      0.40945472	     -2.10720851	      5.63229711	     -0.71222298	    -13.75737699	     20.52879342	     -1.80888740	     34.88723548	     -7.62833149	     -2.65919722	    -20.05510105	      7.92069324	      0.05192361	     -7.74824358	      2.76223914	      7.91265860
      1.60000000	     -5.46161422	     -2.80043241	     -6.10238963	     -1.00648404	      0.93115114	      0.40842633	     -2.09465753	      5.50749414	     -0.72041316	    -14.12263065	     20.80772243	     -1.79588811	     34.95919637	     -7.50089051	     -2.69873338	    -19.01277577	      7.98364337	      0.05452506	     -7.60583306	      2.67212160	      7.95728982
      1.61000000	     -5.59825896	     -2.75300815	     -6.01607955	     -1.00071744	      0.92986502	      0.40731126	     -2.11022648	      5.37269640	     -0.72775094	    -14.52505435	     21.05081571	     -1.75989696	     35.04382420	     -7.37778982	     -2.87818446	    -18.22022392	      8.01458653	      0.06688380	     -7.49490729	      2.57543129	      8.00339921
      1.62000000	     -5.69996976	     -2.70840339	     -5.92466887	     -0.99475436	      0.92862995	      0.40610980	     -2.16403668	      5.23007021	     -0.72996518	    -14.95591283	     21.25381734	     -1.68908331	     35.14328675	     -7.25874614	     -3.18907806	    -17.69690212	      8.01529804	      0.06797028	     -7.41989474	      2.47312176	      8.04744202
      1.63000000	     -5.76387369	     -2.66799326	     -5.83530706	     -0.98860842	      0.92745923	      0.40483944	     -2.25630970	      5.08307950	     -0.70140655	    -15.41977269	     21.41357314	     -1.53537958	     35.24929596	     -7.14719116	     -3.60524186	    -17.44045535	      7.98357573	      0.02200108	     -7.38712610	      2.36342025	      8.09250202
